# xmcd
#
# Track frame offsets: 
#        150
#        22659
#        43185
#        60807
#        84166
#        109265
#        136340
#        157054
#        179193
#        205848
#        207291
#
# Disc length: 3027 seconds
#
# Revision: 0
# Processed by: cddbd v1.5.2PL0 Copyright (c) Steve Scherf et al.
# Submitted via: ExactAudioCopy v0.99pb4
#
DISCID=900bd10b
DTITLE=Brandy Irvon - Imagination Fruit
DYEAR=2001
DGENRE=R&B
TTITLE0=Better Man
TTITLE1=Where'd You Get Those Shoes?
TTITLE2=Transcend
TTITLE3=Silent Dance
TTITLE4=Like My Imagination
TTITLE5=Shaky Brown
TTITLE6=Ring Around My Finger
TTITLE7=Pandora
TTITLE8=Don't Cry For Me (Last Will)
TTITLE9=Ghosts and Monsters
TTITLE10=Story To Tell
EXTD=
EXTT0=
EXTT1=
EXTT2=
EXTT3=
EXTT4=
EXTT5=
EXTT6=
EXTT7=
EXTT8=
EXTT9=
EXTT10=
PLAYORDER=
